<svg version="1.1" id="Layer_1" xmlns="http://www.w3.org/2000/svg" xmlns:xlink="http://www.w3.org/1999/xlink" x="0px" y="0px"
	 width="100%" viewBox="0 0 460 476" enable-background="new 0 0 460 476" xml:space="preserve">
<path fill="#D42C3F" opacity="1.000000" stroke="none" 
	d="
M1.000000,416.000000 
	C1.000000,278.976685 1.000000,141.953354 1.417290,4.468456 
	C12.957687,6.016686 24.136435,7.765425 35.185970,10.120422 
	C43.738781,11.943291 52.125080,14.543192 60.594288,16.763781 
	C68.550385,18.849836 76.596870,20.632648 84.458870,23.024574 
	C92.516876,25.476133 100.451141,28.366035 108.345459,31.315939 
	C118.110168,34.964760 127.887154,38.620354 137.450699,42.754532 
	C144.267487,45.701328 150.709305,49.506210 157.376526,52.811001 
	C164.003021,56.095600 170.668945,59.305397 177.379715,62.413811 
	C182.882736,64.962791 188.477020,67.314728 194.369003,69.877274 
	C194.908798,70.130577 195.110428,70.260628 195.353394,70.676018 
	C196.351440,71.544273 197.308182,72.127190 198.619690,72.750931 
	C199.596191,73.017418 200.285416,73.137062 200.829987,73.483871 
	C242.867615,100.255478 279.769806,132.794083 310.886322,171.781403 
	C333.093597,199.605865 351.668854,229.695435 367.099487,261.785400 
	C389.992096,309.393433 405.179291,359.403931 414.296387,411.334198 
	C414.548615,412.770935 413.420959,414.449982 412.477295,415.959106 
	C389.925934,415.883331 367.834045,415.839844 345.742157,415.853363 
	C327.803772,415.864380 309.865417,415.943787 291.581787,415.861298 
	C288.611115,415.847260 285.985687,415.964722 282.806702,416.042603 
	C280.093262,415.925812 277.933350,415.782135 275.773407,415.781189 
	C229.664032,415.760529 183.554657,415.770813 137.445297,415.742188 
	C112.150459,415.726501 86.855659,415.650391 61.201469,415.547180 
	C54.705238,415.526367 48.568375,415.559937 41.948807,415.686218 
	C40.162006,415.715118 38.857922,415.651276 37.302380,415.546570 
	C35.847527,415.528168 34.644131,415.550690 32.948486,415.638245 
	C21.970825,415.802185 11.485413,415.901093 1.000000,416.000000 
M108.871368,259.184692 
	C100.128632,259.615387 90.995995,258.566071 82.714554,260.747803 
	C55.285034,267.974030 35.960426,294.675507 41.471294,327.220215 
	C47.424061,362.374603 86.056580,383.490143 119.097878,370.243958 
	C150.987747,357.459412 165.276764,321.286163 149.895248,290.464020 
	C141.666519,273.974945 128.381607,262.963104 108.871368,259.184692 
z"/>
<path fill="#D6A482" opacity="1.000000" stroke="none" 
	d="
M412.936768,416.016052 
	C413.420959,414.449982 414.548615,412.770935 414.296387,411.334198 
	C405.179291,359.403931 389.992096,309.393433 367.099487,261.785400 
	C351.668854,229.695435 333.093597,199.605865 310.886322,171.781403 
	C279.769806,132.794083 242.867615,100.255478 200.829987,73.483871 
	C200.285416,73.137062 199.596191,73.017418 198.471268,72.510849 
	C197.082718,71.616859 196.197403,71.003769 195.312073,70.390678 
	C195.110428,70.260628 194.908798,70.130577 194.206268,69.620201 
	C190.785934,66.624001 187.866516,64.008125 185.415741,61.333805 
	C276.365173,61.264427 366.845978,61.251286 457.326782,61.273899 
	C458.228882,61.274124 459.130829,61.747112 460.142883,62.211235 
	C460.440582,62.694836 460.689606,62.887142 461.000000,63.000000 
	C461.000000,90.020897 461.000000,117.041786 460.673889,144.512299 
	C456.477509,145.050842 458.071533,148.066864 458.075165,149.761292 
	C458.140778,180.539001 458.444031,211.316315 458.473236,242.093933 
	C458.493103,263.035156 458.073029,283.976440 458.020752,304.918152 
	C457.938110,338.037140 457.932251,371.156891 458.128662,404.274933 
	C458.143951,406.855530 459.999664,409.425232 461.000000,412.000000 
	C461.000000,431.354218 461.000000,450.708466 460.732849,470.749817 
	C458.325989,472.559692 456.186310,473.682465 453.637390,474.785522 
	C452.145905,474.626648 451.063690,474.487488 449.844208,474.216797 
	C449.468170,473.957672 449.221588,473.940155 448.560791,474.003845 
	C422.795105,467.547028 397.212677,461.876099 372.137360,454.484802 
	C345.411133,446.606873 319.897552,435.339600 295.104889,422.341949 
	C295.703156,420.714447 296.255768,419.400940 297.257660,418.063049 
	C306.976349,417.701569 316.244568,417.118073 325.515381,417.073853 
	C352.572693,416.944733 379.631104,417.053284 406.688873,416.988861 
	C408.772278,416.983887 410.854156,416.354980 412.936768,416.016052 
M458.393799,141.070663 
	C458.393799,141.070663 458.592438,141.016479 458.592438,141.016479 
	C458.592438,141.016479 458.396912,140.950607 458.393799,141.070663 
z"/>
<path fill="#000000" opacity="1.000000" stroke="none" 
	d="
M295.059204,422.655945 
	C319.897552,435.339600 345.411133,446.606873 372.137360,454.484802 
	C397.212677,461.876099 422.795105,467.547028 448.685425,474.183655 
	C449.216461,474.392395 449.611053,474.580200 449.611053,474.580200 
	C449.611053,474.580200 449.981445,474.348328 449.981445,474.348328 
	C451.063690,474.487488 452.145905,474.626648 453.973938,475.186890 
	C454.479828,476.071991 454.239899,476.535980 454.000000,477.000000 
	C303.000000,477.000000 151.999985,477.000000 1.000000,477.000000 
	C1.000000,456.903229 1.000000,436.920258 1.000000,416.468658 
	C11.485413,415.901093 21.970825,415.802185 33.283943,415.704224 
	C35.259041,415.665955 36.406437,415.626709 37.553833,415.587463 
	C38.857922,415.651276 40.162006,415.715118 42.370564,415.749695 
	C49.370300,415.680786 55.465572,415.641144 61.560841,415.601501 
	C86.855659,415.650391 112.150459,415.726501 137.445297,415.742188 
	C183.554657,415.770813 229.664032,415.760529 275.773407,415.781189 
	C277.933350,415.782135 280.093262,415.925812 282.917908,416.256256 
	C287.408173,418.558289 291.233704,420.607117 295.059204,422.655945 
z"/>
<path fill="#000000" opacity="1.000000" stroke="none" 
	d="
M460.032867,61.999393 
	C459.130829,61.747112 458.228882,61.274124 457.326782,61.273899 
	C366.845978,61.251286 276.365173,61.264427 185.028870,61.225655 
	C181.359894,60.367031 178.381958,59.911758 175.759659,58.691940 
	C158.453400,50.641594 141.550720,41.623898 123.900345,34.434116 
	C88.063652,19.836243 50.712925,10.234912 12.690309,3.195838 
	C11.692241,3.011067 10.892324,1.755958 10.000000,1.000000 
	C160.333344,1.000000 310.666687,1.000000 461.000000,1.000000 
	C461.000000,21.096882 461.000000,41.079784 460.758209,61.525696 
	C460.516418,61.988708 460.032867,61.999393 460.032867,61.999393 
z"/>
<path fill="#D9AC8D" opacity="1.000000" stroke="none" 
	d="
M461.000000,411.531342 
	C459.999664,409.425232 458.143951,406.855530 458.128662,404.274933 
	C457.932251,371.156891 457.938110,338.037140 458.020752,304.918152 
	C458.073029,283.976440 458.493103,263.035156 458.473236,242.093933 
	C458.444031,211.316315 458.140778,180.539001 458.075165,149.761292 
	C458.071533,148.066864 456.477509,145.050842 460.673889,144.980957 
	C461.000000,233.687561 461.000000,322.375122 461.000000,411.531342 
z"/>
<path fill="#A4333F" opacity="1.000000" stroke="none" 
	d="
M9.508951,1.000000 
	C10.892324,1.755958 11.692241,3.011067 12.690309,3.195838 
	C50.712925,10.234912 88.063652,19.836243 123.900345,34.434116 
	C141.550720,41.623898 158.453400,50.641594 175.759659,58.691940 
	C178.381958,59.911758 181.359894,60.367031 184.560211,61.284096 
	C187.866516,64.008125 190.785934,66.624001 193.868103,69.496948 
	C188.477020,67.314728 182.882736,64.962791 177.379715,62.413811 
	C170.668945,59.305397 164.003021,56.095600 157.376526,52.811001 
	C150.709305,49.506210 144.267487,45.701328 137.450699,42.754532 
	C127.887154,38.620354 118.110168,34.964760 108.345459,31.315939 
	C100.451141,28.366035 92.516876,25.476133 84.458870,23.024574 
	C76.596870,20.632648 68.550385,18.849836 60.594288,16.763781 
	C52.125080,14.543192 43.738781,11.943291 35.185970,10.120422 
	C24.136435,7.765425 12.957687,6.016686 1.417290,4.003444 
	C1.000000,3.041921 1.000000,2.083843 1.000000,1.000000 
	C3.672023,1.000000 6.344963,1.000000 9.508951,1.000000 
z"/>
<path fill="#A98266" opacity="1.000000" stroke="none" 
	d="
M454.497894,477.000000 
	C454.239899,476.535980 454.479828,476.071991 454.383179,475.206604 
	C456.186310,473.682465 458.325989,472.559692 460.732849,471.218475 
	C461.000000,472.920654 461.000000,474.841339 461.000000,477.000000 
	C459.001343,477.000000 456.998566,477.000000 454.497894,477.000000 
z"/>
<path fill="#AF8366" opacity="1.000000" stroke="none" 
	d="
M460.142883,62.211235 
	C460.032867,61.999393 460.516418,61.988708 460.758209,61.994354 
	C461.000000,62.000000 461.000000,62.500000 461.000000,62.750000 
	C460.689606,62.887142 460.440582,62.694836 460.142883,62.211235 
z"/>
<path fill="#010000" opacity="1.000000" stroke="none" 
	d="
M109.271194,259.378357 
	C128.381607,262.963104 141.666519,273.974945 149.895248,290.464020 
	C165.276764,321.286163 150.987747,357.459412 119.097878,370.243958 
	C86.056580,383.490143 47.424061,362.374603 41.471294,327.220215 
	C35.960426,294.675507 55.285034,267.974030 82.714554,260.747803 
	C90.995995,258.566071 100.128632,259.615387 109.271194,259.378357 
z"/>
<path fill="#F59389" opacity="1.000000" stroke="none" 
	d="
M412.477295,415.959106 
	C410.854156,416.354980 408.772278,416.983887 406.688873,416.988861 
	C379.631104,417.053284 352.572693,416.944733 325.515381,417.073853 
	C316.244568,417.118073 306.976349,417.701569 296.958923,417.924622 
	C294.782928,417.204620 293.355011,416.598724 291.927063,415.992828 
	C309.865417,415.943787 327.803772,415.864380 345.742157,415.853363 
	C367.834045,415.839844 389.925934,415.883331 412.477295,415.959106 
z"/>
<path fill="#B78270" opacity="1.000000" stroke="none" 
	d="
M291.581787,415.861298 
	C293.355011,416.598724 294.782928,417.204620 296.509644,417.948975 
	C296.255768,419.400940 295.703156,420.714447 295.104889,422.341949 
	C291.233704,420.607117 287.408173,418.558289 283.471466,416.295837 
	C285.985687,415.964722 288.611115,415.847260 291.581787,415.861298 
z"/>
<path fill="#B78270" opacity="1.000000" stroke="none" 
	d="
M61.201469,415.547180 
	C55.465572,415.641144 49.370300,415.680786 42.853271,415.656921 
	C48.568375,415.559937 54.705238,415.526367 61.201469,415.547180 
z"/>
<path fill="#A4333F" opacity="1.000000" stroke="none" 
	d="
M195.353394,70.676018 
	C196.197403,71.003769 197.082718,71.616859 198.116486,72.470032 
	C197.308182,72.127190 196.351440,71.544273 195.353394,70.676018 
z"/>
<path fill="#B78270" opacity="1.000000" stroke="none" 
	d="
M37.302380,415.546570 
	C36.406437,415.626709 35.259041,415.665955 33.776188,415.639191 
	C34.644131,415.550690 35.847527,415.528168 37.302380,415.546570 
z"/>
<path fill="#D9AC8D" opacity="1.000000" stroke="none" 
	d="
M458.395355,141.010635 
	C458.396912,140.950607 458.592438,141.016479 458.592438,141.016479 
	C458.592438,141.016479 458.393799,141.070663 458.395355,141.010635 
z"/>
<path fill="#A98266" opacity="1.000000" stroke="none" 
	d="
M449.844208,474.216797 
	C449.981445,474.348328 449.611053,474.580200 449.611053,474.580200 
	C449.611053,474.580200 449.216461,474.392395 449.091827,474.212585 
	C449.221588,473.940155 449.468170,473.957672 449.844208,474.216797 
z"/>
</svg>