<?xml version="1.0" standalone="no"?>
<!DOCTYPE svg PUBLIC "-//W3C//DTD SVG 20010904//EN"
 "http://www.w3.org/TR/2001/REC-SVG-20010904/DTD/svg10.dtd">
<svg version="1.0" xmlns="http://www.w3.org/2000/svg"
 width="1129.000000pt" height="1280.000000pt" viewBox="0 0 1129.000000 1280.000000"
 preserveAspectRatio="xMidYMid meet">
<metadata>
Created by potrace 1.15, written by Peter Selinger 2001-2017
</metadata>
<g transform="translate(0.000000,1280.000000) scale(0.100000,-0.100000)"
fill="#d52c3f" stroke="none">
<path d="M2790 12786 c-217 -46 -392 -162 -458 -304 -23 -48 -27 -71 -27 -147
0 -143 55 -283 190 -485 201 -302 498 -614 1305 -1374 496 -467 1009 -976
1191 -1181 444 -500 689 -885 777 -1218 21 -82 23 -100 12 -107 -21 -13 -218
-48 -360 -65 -227 -27 -580 -37 -895 -25 -295 11 -389 16 -945 50 -579 36
-693 40 -1026 41 -443 0 -715 -24 -980 -86 -569 -133 -945 -437 -1093 -883
-53 -161 -74 -282 -68 -408 l4 -112 -41 -12 c-60 -18 -174 -77 -229 -118 -61
-46 -121 -135 -137 -203 -42 -175 83 -462 269 -616 130 -108 278 -169 483
-199 212 -31 537 -9 876 60 356 73 638 157 1517 451 1034 345 1207 399 1575
490 343 85 639 132 897 142 l152 6 19 -44 c37 -87 47 -150 47 -304 -1 -212
-34 -382 -130 -671 -158 -474 -374 -920 -930 -1924 -111 -201 -211 -383 -223
-405 -11 -22 -83 -123 -159 -225 -363 -482 -578 -812 -737 -1130 -309 -621
-314 -1052 -17 -1351 114 -114 261 -199 506 -292 775 -293 1316 -112 1655 556
225 445 371 1206 415 2162 7 150 27 257 161 865 189 856 351 1384 545 1775 99
199 184 322 303 440 146 145 253 198 403 196 99 -1 150 -15 268 -71 268 -129
582 -427 959 -910 100 -129 118 -157 156 -255 371 -940 821 -1517 1265 -1620
380 -89 711 153 893 650 79 218 107 383 106 625 0 210 -15 316 -71 499 -183
606 -701 1037 -1388 1154 -75 13 -97 23 -353 171 -559 322 -806 479 -1037 658
-157 122 -393 356 -488 485 -97 131 -176 273 -220 393 -58 159 -66 137 81 223
70 41 257 147 416 236 672 379 866 508 1077 720 128 128 183 203 239 325 50
107 70 201 70 330 0 162 -32 288 -120 472 -102 216 -201 324 -298 324 -145 0
-266 -170 -507 -720 -406 -924 -539 -1170 -786 -1455 -67 -78 -181 -184 -224
-208 -37 -20 -31 302 9 473 35 150 66 243 152 451 235 574 256 641 258 844 1
153 -13 216 -76 345 -74 151 -238 295 -451 395 -220 103 -539 186 -771 201
-304 20 -535 -130 -596 -386 -19 -78 -15 -228 9 -346 12 -56 71 -250 132 -430
188 -557 217 -673 226 -905 7 -170 -7 -254 -61 -365 -61 -124 -46 -125 -186
12 -380 372 -678 813 -1313 1944 -295 527 -488 863 -605 1055 -493 809 -895
1224 -1288 1331 -82 21 -244 27 -324 10z"/>
</g>
</svg>
